<?xml version="1.0" standalone="no"?>
<!DOCTYPE svg PUBLIC "-//W3C//DTD SVG 20010904//EN" "http://www.w3.org/TR/2001/REC-SVG-20010904/DTD/svg10.dtd">
<svg xmlns="http://www.w3.org/2000/svg" version="1.0" width="740.000000pt" height="568.000000pt" viewBox="0 0 740.000000 568.000000" preserveAspectRatio="xMidYMid meet">
<metadata>
Created by potrace 1.16, written by Peter Selinger 2001-2019
<meta name="Producer" content="Online-Convert"/></metadata>
<g transform="translate(0.000000,568.000000) scale(0.100000,-0.100000)" fill="#000000" stroke="none">
<path d="M3030 4450 c-8 -5 -25 -10 -38 -10 -66 0 -274 -88 -372 -158 -174 -123 -289 -270 -380 -487 -64 -154 -78 -453 -28 -615 49 -158 109 -275 190 -374 140 -170 326 -293 523 -346 141 -38 290 -49 401 -30 96 17 198 42 209 51 5 5 15 9 23 9 30 0 185 85 261 145 290 223 445 606 387 954 -10 56 -26 128 -37 159 -11 31 -23 66 -26 77 -4 11 -24 53 -45 93 -138 264 -395 458 -693 524 -67 15 -356 21 -375 8z m-146 -565 c30 -20 50 -67 42 -99 -3 -13 -22 -44 -43 -67 -54 -65 -93 -159 -100 -241 -5 -57 -11 -74 -34 -99 -38 -40 -89 -40 -130 0 -25 25 -29 37 -29 83 1 133 65 292 156 386 55 57 92 67 138 37z m2 -730 c11 -8 27 -27 34 -44 32 -79 -51 -157 -125 -117 -73 39 -73 123 -2 166 33 20 55 19 93 -5z"/>
<path d="M4638 3020 c-111 -19 -221 -99 -269 -197 -20 -41 -24 -63 -24 -148 0 -112 17 -162 77 -231 138 -157 370 -165 516 -17 87 88 122 225 86 339 -23 76 -37 98 -96 156 -52 51 -110 82 -173 93 -22 4 -47 8 -55 10 -8 1 -36 -1 -62 -5z"/>
<path d="M3775 2295 c-99 -18 -139 -34 -220 -87 -98 -65 -173 -162 -219 -286 -22 -57 -30 -202 -17 -280 26 -160 152 -324 304 -396 42 -20 85 -36 96 -36 11 0 23 -5 26 -10 4 -6 55 -10 120 -10 65 0 116 4 120 10 3 6 14 10 24 10 10 0 43 11 73 24 160 71 274 201 322 368 25 88 21 219 -9 312 -25 78 -72 160 -117 206 -107 108 -182 149 -328 176 -86 16 -82 16 -175 -1z"/>
</g>
</svg>
